<?xml version="1.0" standalone="no"?>
<svg xmlns:xlink="http://www.w3.org/1999/xlink" id="wave" style="transform:rotate(180deg); transition: 0.3s" viewBox="0 0 1440 100" version="1.1" xmlns="http://www.w3.org/2000/svg"><defs><linearGradient id="sw-gradient-0" x1="0" x2="0" y1="1" y2="0"><stop stop-color="rgba(32, 27, 44, 1)" offset="0%"/><stop stop-color="rgba(32, 27, 44, 1)" offset="100%"/></linearGradient></defs><path style="transform:translate(0, 0px); opacity:1" fill="url(#sw-gradient-0)" d="M0,90L48,81.7C96,73,192,57,288,55C384,53,480,67,576,65C672,63,768,47,864,48.3C960,50,1056,70,1152,70C1248,70,1344,50,1440,43.3C1536,37,1632,43,1728,41.7C1824,40,1920,30,2016,26.7C2112,23,2208,27,2304,35C2400,43,2496,57,2592,56.7C2688,57,2784,43,2880,41.7C2976,40,3072,50,3168,51.7C3264,53,3360,47,3456,46.7C3552,47,3648,53,3744,53.3C3840,53,3936,47,4032,45C4128,43,4224,47,4320,43.3C4416,40,4512,30,4608,36.7C4704,43,4800,67,4896,71.7C4992,77,5088,63,5184,55C5280,47,5376,43,5472,46.7C5568,50,5664,60,5760,53.3C5856,47,5952,23,6048,16.7C6144,10,6240,20,6336,33.3C6432,47,6528,63,6624,71.7C6720,80,6816,80,6864,80L6912,80L6912,100L6864,100C6816,100,6720,100,6624,100C6528,100,6432,100,6336,100C6240,100,6144,100,6048,100C5952,100,5856,100,5760,100C5664,100,5568,100,5472,100C5376,100,5280,100,5184,100C5088,100,4992,100,4896,100C4800,100,4704,100,4608,100C4512,100,4416,100,4320,100C4224,100,4128,100,4032,100C3936,100,3840,100,3744,100C3648,100,3552,100,3456,100C3360,100,3264,100,3168,100C3072,100,2976,100,2880,100C2784,100,2688,100,2592,100C2496,100,2400,100,2304,100C2208,100,2112,100,2016,100C1920,100,1824,100,1728,100C1632,100,1536,100,1440,100C1344,100,1248,100,1152,100C1056,100,960,100,864,100C768,100,672,100,576,100C480,100,384,100,288,100C192,100,96,100,48,100L0,100Z"/></svg>